<?xml version="1.0" encoding="utf-8"?>
<!-- Generator: Adobe Illustrator 25.0.1, SVG Export Plug-In . SVG Version: 6.00 Build 0)  -->
<svg version="1.1" id="Layer_1" xmlns="http://www.w3.org/2000/svg" xmlns:xlink="http://www.w3.org/1999/xlink" x="0px" y="0px"
	 viewBox="0 0 8079.2 2229" style="enable-background:new 0 0 8079.2 2229;" xml:space="preserve">
<style type="text/css">
	.st0{fill:#FFFFFF;}
</style>
<g transform="translate(0.000000,9371.000000) scale(0.100000,-0.100000)">
	<path class="st0" d="M24393.8,93712.2c-376.5-5.9-684.8-16.6-917-32.1c-1915.3-128-3925.4-788.8-6001.3-1972.6
		c-1649.6-940.8-3341.7-2210.9-5067.6-3803.6c-414.1-382.2-744.7-700.5-1191.7-1147.7c-297.3-297.3-458.8-462.2-706.7-721
		c-2600.3-2716.9-5263.2-6153.7-7767.1-10024.7c-861.8-1332.3-1701.4-2715-2394.1-3942.6C212,71826.5-6.6,71430-4.7,71428.3
		c0.5-0.5,23.3,19,50.9,43.1c397.5,350.1,1054.9,910.5,1660.3,1415C3810.5,74640,6032.8,76368,8125.3,77878
		c3502.8,2527.8,6655.4,4464.7,9337.3,5736.3c1807,857,3404.3,1414.6,4766.8,1664.3c472.4,86.6,879.9,133.2,1329.6,151.8
		c147,6.2,527.8,3.6,762.3-5.2c1988.5-74.5,3681.1-582,4983.2-1495c246.4-172.9,476.2-358.7,702.9-569.2
		c108.9-101.1,290.2-286.6,394.6-403.7c818.2-918.1,1335.8-2051.8,1522.3-3334.8c59.7-411.5,86.3-842.7,78-1262.3
		c-3.1-145.8-4.8-198.1-11.2-317.1c-59.5-1104.2-333.5-2272.5-811.1-3456.1c-412.5-1022.8-974-2054.9-1673.1-3075.1
		c-30.4-44.2-55.9-82.1-56.6-84c-1-2.9,1219.5-3.3,9085.4-3.3c5938.2,0,9086.6,0.7,9086.6,2.4
		c0,1.9-15045.7,19015.1-15140.9,19133.6c-136.3,169.1-293.5,349.4-446,511.4c-62.3,65.9-226.2,230.2-297.6,298.3
		c-655.3,624.6-1392.4,1117.5-2221.6,1485.7c-1179.1,523.8-2525.4,796.8-4187.6,849.2
		C25086.3,93712.7,24643.1,93716,24393.8,93712.2z"/>
	<path class="st0" d="M33161.7,93711.7c2.6-4.5,15070.4-19043.9,15131.8-19120.5c144.6-180.3,291.6-349.2,454.8-522.8
		c103.9-110.4,316.1-318.5,436.7-428.4c595.8-542.1,1271.6-987.1,2008.7-1323c1154.1-525.7,2476.6-809.4,4082.9-875.8
		c524.2-21.6,1213.1-19.8,1781.6,4.8c1705.9,73.7,3489.2,573,5323.8,1490.4c2465.2,1232.6,5034.1,3220.9,7664.6,5932
		c2337.5,2409.5,4712.8,5381.9,7009.1,8771.2c1047.5,1546.3,2079.1,3185.2,2978,4731.1c262.6,451.5,534.9,933.6,707.2,1251.1
		c16.7,30.7,34.5,63.8,39.7,73.5c5.5,9.5,8.1,16.7,6.2,15.5s-58.5-50.4-125.8-109.2c-744-651.7-1817-1551.3-2824.4-2368.2
		c-3298.7-2674.8-6552.9-5041.2-9447.9-6870.4c-3764.6-2378.6-6923-3861.9-9395.5-4412.3c-597.3-133-1168.9-213.8-1671-236.7
		c-29.5-1.2-64.2-2.9-77.3-3.6s-79.4-2.4-147.5-3.6c-170.8-3.3-453.6,0.7-674.3,9.5c-2045.6,82.5-3774.4,625.1-5085.5,1595.8
		c-422,312.3-814.2,685.8-1134.1,1079.9c-361.8,445.3-652,926-878.2,1453.6c-310.2,723.8-489.8,1519.9-534,2366.7
		c-8.3,159.1-9.5,212.4-9.5,423.4s1.4,268.3,9.5,432.9c66.1,1308.7,436.2,2711.1,1087,4118.6c128,276.9,291.6,603,436.9,871.8
		c217.4,401,456.9,802.8,719.1,1206c57.1,87.8,198.9,299.5,255.2,381.3c25.2,36.4,45.7,66.6,45.7,67.3c0,0.5-4089.6,1-9087.7,1
		C34978.2,93714.6,33160.2,93713.9,33161.7,93711.7z"/>
	<path class="st0" d="M56971.6,93697.4c-0.9-6.9-15.7-96.6-32.6-199.3c-147.5-887.5-275.9-1516.8-415.1-2033.7
		c-230.2-854.4-502.6-1436.7-880.6-1883.1c-66.1-78-176-192.4-249-258.8c-482.6-440-1129.1-742.4-2128.9-995.7
		c-440.8-111.6-950.7-215.5-1627-331.6c-107.3-18.3-403.2-67.6-438.1-72.8c-10.9-1.7-19.3-3.3-18.8-3.8s87.5-15.2,193.1-32.8
		c985.2-163.6,1644.6-300.9,2191.7-456.7c765.7-217.9,1309.7-478.3,1725.4-825.6c123.4-103,250.9-229.5,353.7-350.6
		c328-386.5,582-892.5,789.7-1572.3c176-575.6,329-1286.6,503.1-2339.4c19-115.1,35.2-211,35.9-212.9s9.3,44.7,18.8,103.5
		c220.3,1340.1,406.5,2158.4,635.1,2789.4c196.9,544.2,424.8,948.6,725,1287.8c44.2,50,172.9,179.1,223.6,224.3
		c402.9,360.4,918.6,626.3,1645.1,848.2c571.8,174.6,1274.9,325.2,2353.4,504.3c105.6,17.6,192.7,32.4,193.1,32.8
		c0.5,0.5-7.8,2.1-18.8,3.8c-43.3,6.4-424.8,70.4-546.4,91.6c-495.9,86.6-882.5,163.2-1240.4,245.7
		c-1166.7,268.8-1883.6,585.4-2407.2,1062.8c-42.1,38.3-147.7,144.6-185.8,186.7c-283.1,314.5-502.6,686.5-690.8,1170.3
		c-246.9,634.6-441,1452.1-665.3,2803.7c-20.7,124.6-38.3,226.7-39,226.7C56973.8,93709.8,56972.6,93704.1,56971.6,93697.4z"/>
</g>
</svg>
